<?xml version="1.0" encoding="UTF-8" standalone="no"?>
<svg
   xmlns:dc="http://purl.org/dc/elements/1.1/"
   xmlns:cc="http://creativecommons.org/ns#"
   xmlns:rdf="http://www.w3.org/1999/02/22-rdf-syntax-ns#"
   xmlns:svg="http://www.w3.org/2000/svg"
   xmlns="http://www.w3.org/2000/svg"
   xmlns:sodipodi="http://sodipodi.sourceforge.net/DTD/sodipodi-0.dtd"
   xmlns:inkscape="http://www.inkscape.org/namespaces/inkscape"
   version="1.1"
   id="mdi-window-minimize"
   width="119.0625mm"
   height="79.375mm"
   viewBox="0 0 450.00001 300"
   sodipodi:docname="resize_full_white.svg"
   inkscape:version="1.0.1 (3bc2e813f5, 2020-09-07)">
  <metadata
     id="metadata9">
    <rdf:RDF>
      <cc:Work
         rdf:about="">
        <dc:format>image/svg+xml</dc:format>
        <dc:type
           rdf:resource="http://purl.org/dc/dcmitype/StillImage" />
        <dc:title></dc:title>
      </cc:Work>
    </rdf:RDF>
  </metadata>
  <defs
     id="defs7" />
  <sodipodi:namedview
     pagecolor="#ffffff"
     bordercolor="#666666"
     borderopacity="1"
     objecttolerance="10"
     gridtolerance="10"
     guidetolerance="10"
     inkscape:pageopacity="0"
     inkscape:pageshadow="2"
     inkscape:window-width="1366"
     inkscape:window-height="706"
     id="namedview5"
     showgrid="false"
     inkscape:zoom="0.72395835"
     inkscape:cx="472.71126"
     inkscape:cy="97.850162"
     inkscape:window-x="-8"
     inkscape:window-y="-8"
     inkscape:window-maximized="1"
     inkscape:current-layer="mdi-window-minimize"
     fit-margin-top="0"
     fit-margin-left="0"
     fit-margin-right="0"
     fit-margin-bottom="0"
     inkscape:document-rotation="0"
     units="mm" />
  <path
     id="rect7"
     style="fill:#ffffff"
     d="M 1,0 C 0.446,0 0,0.446 0,1 v 298 c 0,0.554 0.446,1 1,1 h 448 c 0.554,0 1,-0.446 1,-1 V 1 c 0,-0.554 -0.446,-1 -1,-1 z M 40.82227,40 H 409.17773 C 409.63324,40 410,40.32616 410,40.73242 V 259.26758 C 410,259.67384 409.63324,260 409.17773,260 H 40.82227 C 40.36676,260 40,259.67384 40,259.26758 V 40.73242 C 40,40.32616 40.36676,40 40.82227,40 Z" />
</svg>
